
<svg aria-hidden="true" style="position:absolute;width:0;height:0;overflow:hidden" xmlns="http://www.w3.org/2000/svg"><defs><symbol id="icon-arrow-right" viewBox="0 0 32 32"><path d="M11.812 14.991h7.882v1.885h-7.882z"/><path d="m20.498 15.677-1.326 1.409-3.698-3.883 1.326-1.409z"/><path d="M20.622 15.974c0 .225-.176.408-.394.408s-.394-.183-.394-.408c0-.225.176-.408.394-.408s.394.183.394.408z"/><path d="m19.151 14.881 1.344 1.389-3.662 3.921-1.344-1.389z"/></symbol>
<symbol id="icon-corner" viewBox="0 0 19 32"><path d="M2.379 31.871c-.771-.207-1.618-.905-1.97-1.622-.437-.891-.451-1.913-.038-2.777.206-.432 1.138-1.399 6.776-7.031 2.411-2.408 4.383-4.401 4.383-4.428s-2.457-2.505-5.46-5.504L.61 5.055.417 4.65C.062 3.905-.019 3.195.17 2.458c.15-.585.414-1.046.851-1.483.628-.628 1.283-.9 2.16-.899.886.002 1.376.175 2.006.709.438.371 11.997 11.896 12.879 12.841.897.961 1.071 1.354 1.071 2.425 0 .656-.067.931-.375 1.534-.153.299-.68.841-5.489 5.639-7.033 7.017-8.263 8.219-8.583 8.392-.581.313-1.658.433-2.31.258z"/></symbol>
<symbol id="icon-facebook" viewBox="0 0 32 32"><path d="M16.003 32.005c8.838 0 16.003-7.165 16.003-16.003S24.841-.001 16.003-.001C7.165-.001 0 7.164 0 16.002s7.165 16.003 16.003 16.003z"/><path fill="#fff" style="fill:var(--color4, #fff)" d="M20.449 15.984h-2.611v9.62h-3.955v-9.62h-1.881v-3.381h1.881v-2.188c0-1.565.739-4.014 3.99-4.014l2.93.012v3.282h-2.126c-.349 0-.839.175-.839.922v1.99h2.956l-.346 3.378z"/></symbol><symbol id="icon-github" viewBox="0 0 32 32"><path d="M32.005 16.003c0 8.838-7.165 16.003-16.003 16.003S-.001 24.841-.001 16.003C-.001 7.165 7.164 0 16.002 0s16.003 7.165 16.003 16.003z"/><path fill="#fff" style="fill:var(--color4, #fff)" d="M16.003 6.589c-5.17 0-9.413 4.243-9.413 9.413 0 4.412 3.096 8.42 7.207 9.413v-3.114c-.407.089-.782.092-1.197-.03-.556-.164-1.008-.535-1.344-1.1-.214-.361-.593-.752-.988-.723l-.097-1.099c.855-.073 1.595.521 2.034 1.259.195.328.42.52.708.605.279.082.578.043.926-.08.088-.698.407-.959.649-1.327v-.001c-2.452-.366-3.429-1.666-3.817-2.693-.514-1.363-.238-3.066.671-4.143.018-.021.05-.076.037-.114-.417-1.259.091-2.3.11-2.41.481.142.559-.143 2.089.786l.264.159c.111.066.076.028.186.02.639-.174 1.312-.269 1.976-.278.669.009 1.338.104 2.003.285l.086.009c-.007-.001.023-.005.075-.036 1.911-1.158 1.842-.779 2.355-.946.019.111.52 1.169.107 2.412-.056.171 1.657 1.739.708 4.256-.388 1.027-1.365 2.328-3.817 2.694v.001c.314.479.692.734.69 1.722v3.888c4.111-.993 7.207-5.001 7.207-9.413 0-5.17-4.243-9.413-9.413-9.413z"/></symbol><symbol id="icon-home" viewBox="0 0 35 32"><path d="M34.256 15.629c.599-.659.541-1.669-.129-2.256L19.354.446c-.671-.586-1.746-.574-2.402.028L2.128 14.062c-.656.602-.689 1.611-.071 2.252l.372.387c.617.642 1.613.718 2.225.17l1.108-.992v14.524c0 .891.722 1.613 1.613 1.613h5.778c.89 0 1.613-.721 1.613-1.613V20.242h7.37v10.161c-.013.89.624 1.612 1.515 1.612h6.123c.89 0 1.613-.722 1.613-1.613V16.083s.306.268.684.6c.377.331 1.168.066 1.767-.594l.42-.462z"/></symbol><symbol id="icon-logo" viewBox="0 0 127 32"><path fill="#fff" style="fill:var(--color4, #fff)" d="M32.076 15.999c0 8.838-7.164 16.002-16.002 16.002S.072 24.837.072 15.999 7.236-.003 16.074-.003s16.002 7.164 16.002 16.002z"/><path d="M14.976 31.935c-.651-.044-1.567-.167-2.136-.287l-.269-.057v-2.593h7.583l-.03 2.454-.283.075c-.596.159-1.903.352-2.771.409-.987.065-1.093.065-2.094-.002zM15.457 12.025c-1.766-.216-3.27-.925-4.521-2.133l-.543-.524.531-.511c1.104-1.062 2.377-1.734 3.853-2.035 2.14-.436 4.394.069 6.142 1.376.456.341 1.213 1.057 1.213 1.148 0 .095-.944.982-1.358 1.276-.853.606-1.947 1.077-2.988 1.289-.652.133-1.74.185-2.33.113z"/><path d="M8.573 14.587c.036-1.077.122-1.704.331-2.418.128-.437.49-1.306.637-1.53l.094-.143.492.461c.532.499 1.43 1.128 2.065 1.448 3.444 1.735 7.578 1.116 10.34-1.548l.429-.414.258.524c.57 1.161.779 2.144.779 3.678v1.004H8.537zM18.724 23.94c-.317-.113-.479-.237-.651-.497l-.155-.235-.033-3.769-10.498-.03-.233-.154c-.348-.23-.551-.613-.548-1.034.003-.507.229-.882.676-1.123l.226-.122h8.825c4.854 0 8.916.019 9.028.043s.312.137.446.251c.703.602.578 1.624-.253 2.072-.22.119-.29.123-2.701.14l-2.475.017v1.684c0 1.975-.025 2.122-.418 2.485-.364.335-.792.429-1.236.27z"/><path d="M11.525 27.645c-1.067-.031-1.078-.033-1.447-.214-.685-.335-1.145-.86-1.36-1.549-.098-.315-.107-.548-.107-2.744v-2.399h7.92l.001.976c.001 1.247.06 1.661.308 2.168.943 1.927 3.61 1.916 4.57-.02l.24-.485.038-2.583h2.375l-.021 2.362c-.02 2.215-.029 2.384-.14 2.715-.336 1.003-1.132 1.649-2.18 1.77-.489.056-8.304.057-10.198.001z"/><path d="M10.789 31.091c-.062-.027-.38-.155-.707-.283-1.228-.483-2.607-1.276-3.819-2.199C5.594 28.1 4.15 26.68 3.61 26 1.501 23.348.281 20.135.135 16.85c-.096-2.161.147-3.993.782-5.898C2.83 5.216 7.744 1.11 13.815.174c.82-.126 2.73-.172 3.677-.089 2.021.179 3.785.68 5.685 1.617 4.71 2.321 7.912 6.757 8.728 12.092.152.996.134 3.599-.032 4.614-.845 5.153-3.882 9.382-8.459 11.778-.535.28-1.827.848-1.93.848-.017 0-.032-.456-.032-1.014v-1.014l.325-.038c1.439-.166 2.589-.963 3.18-2.201.344-.721.357-.845.383-3.548l.023-2.468.208-.034c.312-.051.854-.331 1.149-.593 1.117-.993 1.124-2.776.015-3.798-.283-.26-.843-.549-1.168-.603l-.212-.035-.001-.771c-.003-1.855-.289-3.193-.971-4.556-1.267-2.53-3.496-4.239-6.325-4.85-.509-.11-.76-.128-1.754-.128s-1.245.018-1.754.128c-.857.185-1.518.417-2.291.802-2.374 1.183-4.07 3.303-4.725 5.911-.199.791-.281 1.564-.281 2.635 0 .758-.011.852-.099.88-.374.121-.856.413-1.121.678-1.24 1.24-.902 3.28.674 4.069.215.108.424.196.464.196.058 0 .078.52.097 2.532.027 2.803.029 2.822.416 3.614.584 1.192 1.678 1.951 3.09 2.142l.269.036v1.071c0 1.127 0 1.126-.255 1.014zM45.24 22.426c-.184-.116-.198-.492-.198-5.259v-5.134l.298-.235c.634-.499 2.586-.835 3.361-.58.78.258.753.051.753 5.804v5.182l-.311.12c-.451.174-3.656.256-3.903.101zM54.218 22.473c-.872-.234-1.638-.684-2.21-1.295-.968-1.035-1.342-2.198-1.343-4.183-.001-1.488.128-2.136.629-3.153.866-1.758 2.856-2.839 5.232-2.841 3.186-.003 4.055.848 3.203 3.138-.315.848-.422.878-1.915.534-1.364-.314-1.749-.297-2.117.095-.423.45-.585 1.028-.585 2.082.001 1.212.147 1.781.567 2.201.411.411.68.407 2.2-.028l1.216-.348.259.243c.48.451.806 2.278.507 2.837-.178.332-.867.632-1.772.772-1.121.173-3.13.146-3.87-.053zM61.473 22.363l-.251-.176v-5.134c0-2.865.046-5.256.104-5.409.057-.151.223-.315.368-.364.44-.149 7.548-.207 7.722-.063.083.069.182.367.222.663.087.655-.102 2.255-.293 2.486-.114.138-.352.155-1.33.095-.655-.04-1.458-.103-1.785-.14l-.594-.067v1.158h3.384l.077.41c.113.604-.028 1.946-.238 2.268-.181.276-.2.279-1.674.253l-1.491-.027-.069 1.061 4.067-.153.081.538c.096.64-.021 2.112-.198 2.501l-.126.277h-3.86c-3.311 0-3.896-.025-4.112-.176z"/><path d="M54.218 22.473c-.872-.234-1.638-.684-2.21-1.295-.968-1.035-1.342-2.198-1.343-4.183-.001-1.488.128-2.136.629-3.153.866-1.759 2.86-2.842 5.232-2.84 3.207.002 4.059.836 3.203 3.136-.315.848-.422.878-1.915.534-1.432-.33-1.778-.301-2.186.185-.379.451-.515 1-.515 2.081 0 1.121.137 1.636.556 2.084.413.442.668.443 2.172.01.646-.186 1.259-.311 1.361-.279.525.166 1.004 2.352.658 3-.178.332-.867.632-1.772.772-1.121.173-3.13.146-3.87-.053z"/><path d="M54.218 22.473c-.872-.234-1.638-.684-2.21-1.295-.968-1.035-1.342-2.198-1.343-4.183-.001-1.488.128-2.136.629-3.153.456-.927 1.161-1.625 2.137-2.117 1.192-.6 2.057-.764 3.662-.692 2.266.102 2.955.515 2.926 1.755-.018.756-.42 1.895-.726 2.059-.158.085-.551.038-1.478-.176-1.432-.33-1.778-.301-2.186.185-.378.449-.515 1-.516 2.068-.001 1.072.163 1.676.575 2.117.393.42.665.419 2.154-.009.646-.186 1.259-.311 1.361-.279.525.166 1.004 2.352.658 3-.169.317-.849.624-1.703.77-1.032.177-3.195.149-3.939-.051zM74.464 22.471c-1.907-.512-3.02-1.741-3.446-3.803-.343-1.663-.166-3.4.49-4.802.895-1.913 3.004-2.958 5.722-2.836 1.523.068 2.222.239 2.662.65.291.272.336.395.336.912 0 .792-.303 1.84-.618 2.136l-.253.238-1.389-.307c-1.57-.348-1.75-.316-2.229.395-.678 1.006-.572 3.235.189 3.996.41.41.649.407 2.182-.027 1.176-.333 1.24-.34 1.449-.151.276.25.668 1.504.668 2.137 0 .537-.279.983-.774 1.238-.779.401-3.827.538-4.991.225zM81.728 22.431l-.255-.111v-5.364c0-4.154.032-5.39.141-5.48.409-.335 1.209-.416 4.158-.418 2.808-.002 3.05.014 3.818.255.943.296 1.502.773 1.878 1.599.193.424.235.738.232 1.707-.005 1.455-.264 2.229-.997 2.983l-.487.501.345.549c.687 1.094 1.434 2.68 1.434 3.044 0 .324-.055.388-.481.562-.642.262-3.51.368-3.927.145-.228-.122-.375-.456-.825-1.873-.735-2.317-.878-2.322-.878-.033v1.692l-.424.122c-.583.167-3.416.259-3.734.12zm5.244-6.353c.162-.179.225-.45.254-1.103.034-.751.007-.906-.206-1.176-.193-.245-.339-.311-.689-.311h-.444v2.829h.435c.298 0 .503-.075.65-.238zM93.153 22.363l-.251-.176v-5.233c0-4.01.033-5.278.141-5.423.244-.328 1.257-.419 4.669-.419 2.512 0 3.335.034 3.42.141.284.359.205 2.735-.102 3.105-.122.147-.338.163-1.336.102-.655-.04-1.458-.103-1.785-.14l-.594-.067v1.158h3.384l.077.41c.113.604-.028 1.946-.238 2.268-.181.276-.2.279-1.674.253l-1.491-.027-.069 1.061 4.067-.153.081.54c.094.626-.003 1.895-.185 2.416l-.125.359h-3.867c-3.317 0-3.903-.025-4.119-.176zM103.347 22.421c-.597-.118-1.168-.41-1.168-.597 0-.209.436-1.692 1.767-6.017.651-2.116 1.21-3.933 1.242-4.038.085-.285.62-.413 2.279-.544 1.448-.115 2.766-.029 2.983.195.047.048.62 1.895 1.273 4.105 1.763 5.962 1.871 6.35 1.81 6.509-.123.322-.766.449-2.246.446-2.149-.005-2.546-.2-2.546-1.248v-.389h-1.697v.484c0 .614-.233.947-.767 1.095-.489.136-2.243.136-2.93 0zm5.012-4.832c-.032-.109-.093-.771-.135-1.471-.069-1.123-.102-1.273-.282-1.273-.259 0-.3.155-.389 1.471-.04.591-.098 1.164-.129 1.273-.048.168.023.198.468.198s.516-.03.467-.198zM114.766 22.429l-.255-.109V11.705l.311-.124c.631-.252 1.471-.377 2.574-.385 1.281-.009 1.883.187 2.138.695.082.163.363 1.164.625 2.225.457 1.848.611 2.314.729 2.197.029-.029.299-1.02.6-2.201l.547-2.147.431-.24c.237-.132.721-.308 1.075-.391.88-.206 2.683-.182 3.221.043l.421.176v10.638l-.481.136c-.264.075-1.179.14-2.032.146-1.252.008-1.584-.024-1.725-.164-.152-.152-.16-.403-.062-1.98.062-.994.142-2.028.178-2.3.05-.376.031-.482-.081-.444-.093.031-.298.834-.555 2.165-.224 1.164-.47 2.178-.546 2.254-.08.08-.543.155-1.092.178-.912.038-.958.028-1.063-.226-.06-.146-.296-1.183-.523-2.303s-.434-2.058-.459-2.084c-.157-.161-.173.277-.06 1.659.07.86.127 1.879.127 2.264 0 .609-.033.717-.255.838-.317.173-3.43.254-3.79.099z"/></symbol><symbol id="icon-menu-close" viewBox="0 0 32 32"><path stroke="#fff" style="stroke:var(--color1, #fff)" stroke-width="2" d="m3.491 1.914 26.975 28.013"/><path d="m3.38 1.17 26.923 27.941-1.441 1.388L1.939 2.558z"/><path d="M30.772 3.063 2.831 29.986l-1.388-1.441L29.384 1.622z"/></symbol><symbol id="icon-menu-open" viewBox="0 0 46 32"><path d="M.161 1.289H45.72v2.093H.161zm0 13.684H45.72v2.093H.161zM.16 28.64h45.559v2.093H.16z"/></symbol><symbol id="icon-quotes" viewBox="0 0 43 32"><path style="fill:var(--color9, #e1e1e1)" d="M32.019 0c1.929 0 3.751.52 5.465 1.561s3.108 2.537 4.179 4.489c1.029 1.952 1.543 4.25 1.543 6.895s-.643 5.226-1.929 7.741c-.429.911-1.2 2.082-2.315 3.513-1.157 1.431-2.229 2.667-3.215 3.708l-4.051 4.098-2.893-4.814c2.015-1.258 3.793-2.819 5.336-4.684 1.543-1.821 2.315-3.491 2.315-5.009 0-.781-.171-1.409-.514-1.886-1.5 1.084-3.172 1.626-5.015 1.626-1.329 0-2.593-.412-3.793-1.236-1.243-.781-2.229-1.821-2.958-3.122-.772-1.258-1.157-2.559-1.157-3.903 0-1.518.45-2.971 1.35-4.358.857-1.388 1.993-2.515 3.408-3.383C29.147.412 30.561 0 32.019 0zM8.937 0c1.929 0 3.751.52 5.465 1.561s3.108 2.537 4.179 4.489c1.029 1.952 1.543 4.25 1.543 6.895 0 1.865-.236 3.534-.707 5.009-.471 1.518-1.286 3.101-2.443 4.749-1.114 1.561-2.165 2.862-3.151 3.903-.986 1.084-2.7 2.884-5.144 5.399l-2.893-4.814c2.015-1.258 3.793-2.819 5.337-4.684 1.543-1.821 2.315-3.491 2.315-5.009 0-.781-.171-1.409-.514-1.886-1.5 1.084-3.172 1.626-5.015 1.626-1.329 0-2.593-.412-3.793-1.236-1.243-.781-2.229-1.821-2.958-3.122C.386 11.622.001 10.321.001 8.977c0-1.518.429-2.971 1.286-4.358S3.28 2.104 4.695 1.236C6.067.412 7.481 0 8.939 0z"/></symbol><symbol id="icon-telegram" viewBox="0 0 32 32"><path d="M32.005 16.003c0 8.838-7.165 16.003-16.003 16.003S-.001 24.841-.001 16.003C-.001 7.165 7.164 0 16.002 0s16.003 7.165 16.003 16.003z"/><path fill="#fff" style="fill:var(--color4, #fff)" d="m12.869 18.378-.318 4.17c.454 0 .651-.182.887-.401l2.131-1.901 4.415 3.018c.81.421 1.38.199 1.599-.695l2.898-12.675.001-.001c.257-1.117-.433-1.554-1.222-1.28L6.225 14.7c-1.163.421-1.145 1.026-.198 1.3l4.355 1.264 10.116-5.908c.476-.294.909-.132.553.163l-8.183 6.858z"/></symbol><symbol id="icon-apples" viewBox="0 0 32 32"><path d="M4.766 31.756c-.119-.034-.234-.118-.255-.186s-.113-.164-.204-.212c-.22-.118-.239-.183-.312-1.071-.074-.899-.161-1.29-.384-1.723-.133-.259-.175-.479-.225-1.186-.095-1.349-.202-1.863-.442-2.128-.073-.081-.131-.45-.204-1.291-.107-1.239-.154-1.463-.41-1.958-.128-.247-.171-.486-.229-1.254-.101-1.337-.17-1.708-.378-2.007-.164-.237-.186-.353-.271-1.43-.101-1.279-.129-1.415-.388-1.919-.147-.286-.186-.49-.247-1.299-.092-1.208-.167-1.603-.371-1.951-.186-.317-.285-.942-.189-1.191.036-.093.14-.246.233-.339.271-.274.311-.408.354-1.18.039-.703.108-.989.238-.989.069 0 .369-.619.436-.9.03-.125.123-.226.278-.3.136-.065.278-.206.34-.337.059-.124.147-.226.196-.226.143 0 .74-.336.902-.507.085-.089.272-.179.434-.206.428-.072.735-.222.815-.396.089-.195-.018-.634-.208-.853-.372-.429-.521-3.129-.221-4.004L4.182.34l.363-.063c.321-.055.371-.048.435.064.071.125.256.317.478.498.072.059.1.148.076.244-.142.567.019 2.655.228 2.948.243.341.327.38.496.229.083-.074.293-.187.468-.251.217-.08.359-.186.447-.336.09-.152.215-.245.405-.302.151-.045.377-.177.5-.292s.294-.236.378-.268c.262-.1 1.517-.143 2.152-.075.552.06.621.084.78.27.095.112.269.251.385.309.246.122.932.77.994.938.103.281.332.335 1.679.396.785.035 1.362.034 1.462-.004.19-.072.274-.257.339-.747.026-.2.099-.397.17-.463.166-.155.309-.512.368-.923.059-.41.123-.546.384-.822.11-.117.241-.33.291-.474.064-.187.165-.304.351-.408.143-.08.29-.226.325-.324.073-.201.235-.262.614-.23.221.018.269.052.324.225.036.112.121.266.19.342.121.133.121.15.006.441-.189.478-.393.831-.584 1.01-.107.1-.23.343-.311.616-.074.248-.191.502-.26.565-.169.153-.31.602-.256.816.082.329.315.38 1.75.384 1.528.005 1.882.05 2.108.267.09.087.341.252.558.367.332.177.427.272.61.611.119.221.283.456.366.522.238.192.282.473.326 2.051.047 1.728.048 1.729.732 1.93l.407.12.054.431c.077.623-.042 1.781-.208 2.018-.248.353-.319.708-.421 2.104-.058.785-.092.953-.271 1.326-.21.436-.257.703-.399 2.283-.05.554-.102.779-.235 1.017-.094.168-.205.498-.248.735-.092.512-.01.694.392.875.138.062.33.184.427.271l.176.158.243-.251c.159-.164.271-.363.321-.576.043-.179.123-.362.178-.408.174-.145.277-.414.398-1.046.105-.547.139-.626.311-.725.11-.063.24-.228.303-.385.067-.168.199-.329.34-.416.127-.078.23-.185.23-.236 0-.145.229-.234.597-.234.383 0 .454.06.576.48.117.403-.064.946-.427 1.281-.237.219-.407.59-.408.89 0 .06-.092.224-.204.365-.238.299-.248.394-.077.713l.127.236.467-.034c.257-.019.839-.031 1.295-.028.8.005.834.012 1.006.183.163.163.518.311.998.418.127.028.225.118.3.275.062.13.205.278.323.334.187.089.226.16.342.624.073.294.2.607.29.713.232.276.287.545.283 1.38-.005.847-.075 1.381-.192 1.453-.126.078-.325.67-.417 1.244-.071.441-.114.549-.263.655-.098.07-.251.301-.339.514-.099.238-.273.49-.453.656-.161.149-.311.328-.334.4s-.213.211-.423.31-.475.28-.589.402c-.192.206-.254.227-.884.303-.373.045-1.029.072-1.458.061-.924-.025-1.268-.026-2.305-.004-1.011.021-2.19-.137-2.448-.328-.105-.077-.219-.141-.255-.141s-.243.2-.462.444c-.308.344-.458.458-.667.507-.357.083-15.249.074-15.537-.009zm14.39-1.634c.099-.045.3-.266.447-.492.305-.466.309-.697.023-1.121-.109-.162-.203-.479-.295-.998-.074-.419-.214-.933-.31-1.144-.151-.329-.175-.476-.175-1.049 0-.534.026-.71.13-.89.12-.207.3-.754.48-1.461.055-.217.113-.298.237-.329.107-.027.214-.145.309-.34.103-.212.186-.298.287-.298.222 0 .704-.26.826-.445.06-.092.155-.495.21-.895s.133-.83.174-.956c.059-.181.055-.241-.018-.287-.122-.077-.718-.077-.766 0-.021.033-.198.143-.394.244s-.454.287-.573.414c-.119.127-.28.231-.358.231-.219 0-.62.189-.816.386-.136.136-.321.207-.775.299-.438.089-.645.166-.776.292-.217.208-.557.281-1.769.378-.503.041-1.202.122-1.552.181-.722.122-1.225.104-2.889-.103-.597-.074-1.338-.156-1.648-.181-.439-.036-.603-.08-.746-.198-.286-.238-.442-.301-1.006-.409-.412-.079-.57-.144-.735-.304-.115-.112-.361-.254-.546-.317s-.467-.228-.626-.367c-.159-.139-.373-.274-.475-.299s-.293-.17-.426-.323c-.193-.222-.287-.278-.468-.278-.366 0-.477.201-.476.861.001 1.006.115 1.732.343 2.179.175.344.217.528.272 1.186.102 1.224.19 1.834.291 2.026.051.097.141.269.2.381.068.13.132.551.179 1.169.088 1.172.172 1.605.372 1.916.084.131.174.359.2.508s.079.37.117.491c.143.452-.305.424 6.851.424 4.933 0 6.533-.02 6.67-.082zm5.963-.441c.507-.02.989-.005 1.133.035.18.05.449.043.954-.023.817-.107 1-.176 1.152-.435.061-.104.201-.226.31-.271.119-.049.233-.168.283-.297.046-.118.197-.322.336-.453.217-.206.264-.305.34-.731.059-.332.139-.548.244-.661.223-.24.305-.622.312-1.446.006-.724-.07-1.062-.295-1.3-.052-.055-.149-.206-.217-.336-.119-.228-.507-.556-.859-.725-.094-.045-.423-.083-.733-.085-.434-.002-.623.028-.831.134-.148.075-.268.162-.268.193s-.154.139-.342.242c-.206.112-.408.291-.509.45-.103.164-.238.281-.353.308-.103.024-.258.109-.344.188-.149.135-.163.137-.244.026-.047-.065-.197-.164-.333-.221-.15-.063-.314-.21-.418-.375-.111-.177-.264-.309-.437-.378-.146-.058-.313-.178-.371-.267-.138-.21-.49-.302-1.157-.302-.429 0-.585.028-.746.136-.112.075-.304.2-.426.279-.221.142-.421.438-.421.623 0 .053-.09.208-.199.346-.142.179-.213.36-.247.635-.062.496.058 1.272.234 1.51.075.102.188.44.25.752.122.608.262.919.442.976.062.02.165.173.229.34.084.221.181.338.352.425.129.066.272.195.318.287s.158.202.25.246c.217.103 1.415.287 1.591.244.075-.018.533-.048 1.019-.067zm-11.594-9.272c.408-.06.615-.11.858-.204.136-.053.637-.13 1.112-.171.9-.077 1.211-.163 1.427-.391.071-.075.309-.174.535-.222.474-.101.829-.264 1.008-.461.07-.077.276-.19.459-.25.239-.079.361-.166.435-.309.063-.121.207-.241.369-.305.171-.069.297-.176.353-.303.048-.108.123-.197.167-.197.122 0 .497-.338.497-.449 0-.054.106-.161.236-.237.166-.098.26-.218.316-.404.053-.175.15-.306.289-.388.168-.099.241-.222.368-.615.087-.27.202-.508.257-.529.167-.064.284-.376.366-.974.043-.314.149-.727.236-.917.254-.556.246-.635-.09-.873l-.294-.208-9.503-.02c-5.226-.011-9.659-.002-9.85.021-.508.06-.636.207-.634.731.002.574.11.998.305 1.202.109.114.198.338.27.676.113.537.226.767.432.877.07.037.16.199.2.358.045.178.206.447.415.694.188.222.357.452.376.511s.123.16.232.224c.109.064.296.24.414.39s.302.317.407.371c.105.054.331.22.503.369s.433.303.582.343c.152.041.316.143.375.234.131.2.441.347.86.406.19.027.403.114.519.212.3.253.594.348 1.227.399.823.066 1.438.167 1.542.253.201.167 1.701.264 2.424.158zM12.081 10.32c.175-.078.402-.345.627-.739.116-.202.159-1.025.075-1.411-.029-.13-.11-.301-.182-.379-.086-.093-.164-.355-.231-.768-.104-.646-.21-.929-.407-1.092-.062-.052-.182-.25-.267-.441-.107-.241-.228-.391-.4-.492-.136-.08-.281-.221-.324-.314-.123-.27-.444-.378-1.119-.378-.33 0-.719.033-.864.074-.336.093-1.209.832-1.355 1.146-.061.13-.139.503-.175.827-.128 1.168-.228 1.228-1.934 1.165-1.092-.041-1.289-.032-1.555.07-.168.064-.323.173-.345.244s-.153.182-.291.25c-.145.071-.298.217-.362.345-.061.122-.189.295-.284.382-.212.196-.284.54-.188.895.191.711.067.694 5.159.696 3.161.001 4.284-.019 4.421-.08zm9.531-.05c.305-.186.377-.521.369-1.727-.008-1.179-.081-1.49-.401-1.694-.118-.075-.229-.187-.246-.249s-.117-.168-.223-.237c-.165-.108-.333-.126-1.215-.126-1.085 0-1.325.061-1.419.36-.022.069-.154.186-.293.259-.152.08-.316.247-.411.418-.122.221-.198.286-.339.29-.1.003-.24.028-.311.056-.073.028-.294.005-.501-.052-.313-.087-.385-.138-.464-.326-.06-.144-.19-.272-.366-.362-.15-.077-.306-.211-.346-.299-.097-.212-.331-.31-.744-.31-.288 0-.372.031-.543.202-.187.187-.199.227-.155.525.026.178.102.506.17.73.166.55.256 1.266.224 1.785-.03.498.06.679.399.804.158.058 1.109.081 3.412.08 3.009-.001 3.205-.008 3.403-.128z"/></symbol><symbol id="icon-heart" viewBox="0 0 28 32"><path opacity=".988235" d="m11.698 31.757-.108-.052V27.48c0-4.848.016-4.641-.377-5.017-.127-.121-.326-.257-.442-.302-.152-.058-.241-.132-.316-.262-.078-.136-.156-.197-.312-.247-.271-.086-.367-.153-.475-.33-.057-.094-.212-.208-.438-.322-.192-.097-.382-.213-.422-.259-.173-.2-.5-.432-.67-.478-.143-.039-.204-.09-.272-.229-.067-.136-.154-.211-.367-.314-.214-.104-.296-.174-.348-.299-.048-.114-.137-.2-.296-.283-.277-.145-.348-.203-.457-.373-.046-.073-.173-.188-.28-.256s-.297-.224-.42-.347c-.123-.123-.385-.379-.582-.569-.593-.571-1.076-1.081-1.234-1.299-.082-.113-.218-.254-.303-.312s-.21-.21-.279-.339c-.072-.135-.209-.291-.325-.371-.135-.093-.219-.196-.258-.318-.067-.208-.206-.376-.393-.474-.072-.038-.132-.106-.133-.151-.003-.202-.293-.757-.481-.92-.161-.141-.206-.22-.263-.47-.085-.369-.22-.642-.379-.767s-.195-.233-.286-.843c-.083-.561-.224-1.033-.369-1.236-.141-.198-.185-.507-.219-1.531-.041-1.257.02-1.749.28-2.28.146-.297.213-.519.283-.935.108-.639.157-.778.312-.879.143-.094.342-.48.385-.748.032-.203.088-.278.33-.446.071-.049.16-.163.197-.252.077-.183.838-.978 1.034-1.078.071-.036.195-.158.275-.269.116-.161.193-.215.371-.259.159-.04.281-.116.42-.261.203-.212.292-.246 1.236-.478.177-.043.424-.144.55-.223C6.252.21 7.347.109 8.393.222c.358.039.471.074.719.222.268.16 1.042.404 1.281.404.151 0 .306.096.389.241.054.093.2.198.442.316.24.117.454.27.636.455.151.153.345.316.431.362s.182.146.213.223c.086.208.777.886 1.011.993.281.127.847.128 1.127.001.223-.101.876-.73.993-.956.041-.079.166-.207.278-.286s.3-.243.418-.367c.129-.135.365-.3.591-.414.251-.126.403-.236.457-.33.096-.167.185-.204.751-.311.311-.058.549-.142.849-.298.348-.18.484-.224.815-.259.862-.092 2.193.001 2.38.165.137.121.533.277.888.35.644.133.801.198 1.019.419.143.145.274.227.424.265.17.043.249.099.364.258.081.112.205.233.275.27.198.103.94.872 1.012 1.049.035.086.131.21.213.276.252.201.317.276.317.365 0 .193.216.648.389.82.197.195.219.258.37 1.065.069.367.149.62.264.841.231.44.292.971.255 2.198-.032 1.056-.071 1.309-.245 1.585-.142.226-.292.782-.36 1.336-.053.434-.104.563-.275.698-.142.111-.271.367-.345.68-.089.376-.143.479-.3.572-.152.09-.318.39-.434.785-.047.159-.1.232-.207.283-.158.075-.325.299-.375.504-.02.08-.117.188-.252.281-.132.091-.249.22-.291.321-.039.093-.193.293-.343.445s-.542.56-.871.909c-.33.349-.685.712-.789.808s-.33.309-.502.474c-.172.165-.34.3-.375.3s-.129.094-.21.209c-.09.128-.255.27-.424.365-.186.105-.301.208-.353.315-.055.116-.152.197-.354.294-.205.099-.303.181-.374.314-.076.142-.145.196-.328.257-.153.051-.301.15-.431.291-.113.121-.363.299-.578.411-.254.133-.408.247-.467.349-.049.083-.137.172-.197.198-.389.172-.549.274-.616.392-.042.074-.173.18-.29.235-.299.141-.635.455-.714.67-.055.15-.07.94-.081 4.496l-.014 4.315-.101.084c-.093.077-.277.084-2.385.081-1.537-.002-2.319-.02-2.392-.055zm3.07-1.542c.245-.074.459-.223.548-.381.044-.078.059-.818.06-2.992l.002-2.888-.181-.181c-.222-.222-.508-.298-1.12-.298-.485 0-.818.067-1.013.203-.283.197-.275.107-.273 3.234.001 2.179.016 2.884.06 2.941.111.14.42.346.574.383.268.064 1.107.051 1.344-.02zm.499-8.394c.111-.045.255-.153.322-.24s.18-.173.252-.191c.305-.077.713-.319.841-.499.098-.138.199-.209.41-.286.231-.084.299-.136.389-.295.07-.125.154-.203.237-.223.24-.058.508-.221.738-.45.126-.125.321-.272.433-.325.224-.106.42-.271.42-.354 0-.073.129-.167.388-.282.155-.069.252-.154.327-.287.078-.14.169-.216.345-.292.179-.077.268-.154.359-.308.075-.129.174-.224.264-.255.079-.028.286-.186.459-.351.742-.71 1.714-1.706 1.837-1.883.073-.105.221-.262.329-.348.131-.105.215-.222.254-.353.041-.138.109-.228.23-.304.244-.154.286-.218.413-.63.062-.202.147-.405.189-.451.07-.077.061-.099-.106-.282-.112-.122-.274-.233-.421-.288-.178-.066-.275-.141-.378-.292-.076-.112-.21-.233-.299-.27-.191-.08-.283-.214-.328-.474-.018-.105-.128-.386-.244-.624-.126-.259-.239-.579-.281-.8-.078-.409-.177-.636-.308-.706-.048-.025-.272-.092-.498-.148l-.412-.101-.397.209c-.404.213-.549.348-.601.563-.016.066-.045.79-.065 1.609-.039 1.622-.033 1.589-.343 1.915-.1.105-.329.35-.507.544s-.379.38-.445.414c-.182.094-1.166.183-1.63.147-.537-.042-1.043-.202-1.142-.362-.129-.209-.267-.342-.448-.436-.15-.077-.189-.132-.258-.367-.158-.53-.211-1.03-.212-2.002-.002-1.057.031-.908-.36-1.663-.064-.124-.197-.28-.297-.348-.163-.111-.226-.123-.642-.123-.545 0-.715.082-.899.433-.062.118-.14.246-.175.286-.168.192-.217.516-.218 1.452-.001.961-.065 1.527-.226 1.99-.071.206-.124.275-.278.361-.105.059-.266.209-.358.334-.146.198-.208.239-.479.32-.171.051-.495.106-.719.124-.478.037-1.444-.049-1.624-.145-.069-.037-.282-.236-.473-.441s-.42-.45-.509-.542c-.28-.291-.278-.281-.317-1.912-.029-1.21-.051-1.551-.111-1.692-.08-.187-.272-.332-.73-.549-.218-.103-.287-.116-.395-.075-.072.028-.218.064-.323.082-.493.082-.615.224-.723.845-.039.221-.113.449-.181.556-.064.099-.175.364-.247.588-.186.578-.22.637-.419.731-.101.048-.23.168-.3.277-.067.106-.181.216-.252.245-.363.143-.443.192-.565.353-.129.169-.13.179-.054.308.044.074.112.259.151.411.091.348.172.472.404.619.114.072.197.168.218.252.043.171.239.432.353.468.048.015.134.108.19.207s.434.514.839.922c1.054 1.064 1.338 1.325 1.532 1.406.113.047.199.13.252.24.058.123.154.206.352.307.149.076.294.183.322.238.09.18.187.268.397.361.129.057.262.169.35.295.099.141.229.244.426.337.157.075.337.205.404.293.128.167.533.423.76.48.089.022.162.089.213.195.053.111.145.193.296.262.12.055.271.125.335.156s.15.116.192.189c.072.128.742.513.892.513.035 0 .109.065.166.145.224.314.556.384 1.725.362.611-.011.837-.034.992-.097zm-4.214-8.883c.438-.412.447-.424.491-.707.025-.158.046-.633.046-1.055.001-.939.078-1.863.169-2.041.069-.134.475-.539 1.015-1.015l.298-.262.523-.033c.617-.039 1.372.007 1.545.094.068.034.209.144.314.245s.354.335.552.521c.198.186.378.38.399.431.098.231.16.939.166 1.867.007 1.279.046 1.493.309 1.734.109.1.312.288.451.418l.253.237.319-.059c.481-.089.785-.355.927-.813.052-.167.125-.372.162-.455.048-.108.075-.424.091-1.086.023-.976.022-.969.331-1.98.093-.305.114-.334.32-.439.121-.062.317-.212.434-.332.136-.14.292-.244.431-.288.343-.108 1.048-.139 1.636-.072.532.061.585.084.69.3.027.056.144.15.259.209.278.14.373.232.405.389.033.165.206.387.342.439.12.045.191.354.247 1.066.037.475.124.662.365.785.087.044.259.175.384.29.332.308.394.292.9-.221.262-.266.434-.481.45-.563.136-.701.179-1.821.123-3.201-.047-1.147-.104-1.397-.404-1.75-.056-.066-.14-.271-.186-.455-.116-.461-.241-.701-.428-.821-.105-.068-.181-.17-.225-.303-.042-.126-.145-.27-.276-.386-.115-.101-.271-.27-.347-.374-.091-.125-.211-.218-.353-.272-.154-.059-.232-.123-.274-.223-.064-.155-.173-.224-.596-.372-.156-.055-.351-.165-.433-.245s-.267-.192-.41-.249c-.237-.094-.372-.105-1.514-.123-1.293-.021-1.97.027-2.226.16-.073.038-.178.133-.235.212-.074.104-.178.166-.375.222-.335.095-.563.229-.752.44-.079.088-.258.236-.397.329s-.31.259-.378.369c-.174.28-1.246 1.324-1.451 1.414-.251.109-1.928.108-2.136-.001-.202-.107-1.226-1.118-1.41-1.392-.085-.127-.278-.313-.438-.421-.157-.107-.32-.246-.362-.31-.1-.152-.425-.34-.716-.413-.167-.042-.29-.117-.431-.262-.307-.316-.401-.331-2.132-.331-1.697 0-1.855.024-2.208.344-.1.09-.306.208-.459.262-.417.147-.526.215-.591.372-.037.089-.115.162-.206.194-.214.074-.452.27-.483.397-.015.061-.088.146-.161.189-.199.118-.324.277-.417.531-.046.125-.112.228-.147.228-.14 0-.347.325-.45.704-.057.21-.103.402-.103.429s-.064.109-.143.184c-.306.293-.381.818-.383 2.662-.001 1.411.052 2.128.176 2.368.124.239.813.892.943.892.068 0 .21-.085.348-.208.128-.114.297-.239.375-.276.246-.117.346-.326.382-.797.058-.754.113-.953.303-1.098.092-.07.211-.227.264-.349.118-.271.217-.389.326-.389.091 0 .315-.196.431-.377.102-.159.656-.246 1.422-.222.777.024.928.07 1.256.381.147.14.358.299.467.354.178.09.211.134.305.418.245.737.315 1.211.329 2.225.008.569.026.729.101.887.05.106.124.313.164.46.126.458.581.797 1.082.807.147.003.224-.05.614-.416z"/></symbol><symbol id="icon-milk" viewBox="0 0 21 32"><path d="M3.835 31.672c-.108-.046-.243-.138-.299-.206-.06-.072-.584-2.939-1.262-6.898-.902-5.27-1.211-6.918-1.388-7.417-.325-.918-.449-1.512-.504-2.419-.054-.895-.009-1.049.374-1.283.235-.143.468-.147 9.81-.147 10.364 0 9.834-.021 10.124.393.245.349.082 1.949-.331 3.248-.127.399-.775 3.577-1.512 7.415-.71 3.694-1.328 6.812-1.373 6.928-.173.439.075.423-6.969.446-4.572.015-6.531-.003-6.67-.061zm13.136-6.144c.486-2.511.887-4.61.889-4.664s-.225.085-.505.309c-.758.605-1.132.841-1.994 1.263-.87.425-1.873.756-2.893.952-.944.182-2.841.178-3.811-.007-1.853-.354-3.542-1.131-4.947-2.275-.227-.185-.412-.297-.412-.249 0 .093 1.485 8.821 1.55 9.105l.038.17 11.2-.039zm-4.844-3.739c2.568-.416 4.894-1.964 6.101-4.058.389-.676.917-2.21.919-2.674 0-.075-1.763-.094-8.566-.094-7.208 0-8.566.016-8.566.104 0 .057.082.428.183.825.758 2.987 3.466 5.338 6.793 5.898.834.14 2.274.141 3.135.001zM10.133 11.845c-.83-.163-1.578-.843-1.837-1.67-.102-.325-.119-.498-.118-1.195l.001-.815-.215-.055c-.405-.104-1.221-.385-1.544-.531l-.323-.147-.344.286c-.189.157-.471.346-.626.419-1.455.689-3.177-.237-3.444-1.851-.114-.688.122-1.45.62-2.001l.253-.28-.137-.36c-.288-.756-.366-1.166-.373-1.965-.006-.738-.004-.754.137-.94.079-.104.235-.234.347-.29.196-.097.488-.102 7.915-.128 4.241-.015 7.796-.007 7.898.018.279.067.515.321.59.637.129.537-.028 1.699-.35 2.589l-.14.389.243.236c.883.858 1.027 2.149.353 3.159-.369.552-.958.923-1.646 1.036-.739.122-1.432-.101-2.083-.671-.185-.162-.356-.295-.38-.295s-.208.076-.41.168c-.202.093-.608.247-.901.343l-.534.175-.029.951c-.033 1.079-.1 1.336-.481 1.843-.581.774-1.502 1.13-2.442.945zm.841-1.691c.101-.051.233-.161.294-.244.104-.142.112-.24.137-1.677l.027-1.526.56-.094c.992-.167 2.091-.593 2.935-1.136l.293-.189.67.672c.369.369.729.704.8.744.308.171.779.032.996-.292.133-.2.163-.57.062-.769-.033-.064-.36-.42-.727-.791l-.668-.675.17-.246c.268-.389.529-.984.654-1.489.063-.256.103-.477.088-.491s-3.068-.011-6.786.009c-5.998.032-6.76.045-6.76.117 0 .381.374 1.327.737 1.86l.216.318-.663.662c-.703.701-.766.81-.693 1.198.046.245.345.544.59.59.413.077.542.006 1.255-.697l.667-.658.513.305c.844.502 1.793.832 2.869.997l.594.091.006 1.1c.009 1.596.029 1.877.145 2.034.261.353.661.463 1.019.28z"/></symbol></defs></svg>

