<svg aria-hidden="true" style="position:absolute;width:0;height:0;overflow:hidden" xmlns="http://www.w3.org/2000/svg"><defs><symbol id="icon-arrow-right" viewBox="0 0 32 32"><path d="M11.812 14.991h7.882v1.885h-7.882z"/><path d="m20.498 15.677-1.326 1.409-3.698-3.883 1.326-1.409z"/><path d="M20.622 15.974c0 .225-.176.408-.394.408s-.394-.183-.394-.408c0-.225.176-.408.394-.408s.394.183.394.408z"/><path d="m19.151 14.881 1.344 1.389-3.662 3.921-1.344-1.389z"/></symbol><symbol id="icon-corner" viewBox="0 0 19 32"><path d="M2.379 31.871c-.771-.207-1.618-.905-1.97-1.622-.437-.891-.451-1.913-.038-2.777.206-.432 1.138-1.399 6.776-7.031 2.411-2.408 4.383-4.401 4.383-4.428s-2.457-2.505-5.46-5.504L.61 5.055.417 4.65C.062 3.905-.019 3.195.17 2.458c.15-.585.414-1.046.851-1.483.628-.628 1.283-.9 2.16-.899.886.002 1.376.175 2.006.709.438.371 11.997 11.896 12.879 12.841.897.961 1.071 1.354 1.071 2.425 0 .656-.067.931-.375 1.534-.153.299-.68.841-5.489 5.639-7.033 7.017-8.263 8.219-8.583 8.392-.581.313-1.658.433-2.31.258z"/></symbol><symbol id="icon-facebook" viewBox="0 0 32 32"><path d="M16.003 32.005c8.838 0 16.003-7.165 16.003-16.003S24.841-.001 16.003-.001C7.165-.001 0 7.164 0 16.002s7.165 16.003 16.003 16.003z"/><path fill="#fff" style="fill:var(--color4, #fff)" d="M20.449 15.984h-2.611v9.62h-3.955v-9.62h-1.881v-3.381h1.881v-2.188c0-1.565.739-4.014 3.99-4.014l2.93.012v3.282h-2.126c-.349 0-.839.175-.839.922v1.99h2.956l-.346 3.378z"/></symbol><symbol id="icon-github" viewBox="0 0 32 32"><path d="M32.005 16.003c0 8.838-7.165 16.003-16.003 16.003S-.001 24.841-.001 16.003C-.001 7.165 7.164 0 16.002 0s16.003 7.165 16.003 16.003z"/><path fill="#fff" style="fill:var(--color4, #fff)" d="M16.003 6.589c-5.17 0-9.413 4.243-9.413 9.413 0 4.412 3.096 8.42 7.207 9.413v-3.114c-.407.089-.782.092-1.197-.03-.556-.164-1.008-.535-1.344-1.1-.214-.361-.593-.752-.988-.723l-.097-1.099c.855-.073 1.595.521 2.034 1.259.195.328.42.52.708.605.279.082.578.043.926-.08.088-.698.407-.959.649-1.327v-.001c-2.452-.366-3.429-1.666-3.817-2.693-.514-1.363-.238-3.066.671-4.143.018-.021.05-.076.037-.114-.417-1.259.091-2.3.11-2.41.481.142.559-.143 2.089.786l.264.159c.111.066.076.028.186.02.639-.174 1.312-.269 1.976-.278.669.009 1.338.104 2.003.285l.086.009c-.007-.001.023-.005.075-.036 1.911-1.158 1.842-.779 2.355-.946.019.111.52 1.169.107 2.412-.056.171 1.657 1.739.708 4.256-.388 1.027-1.365 2.328-3.817 2.694v.001c.314.479.692.734.69 1.722v3.888c4.111-.993 7.207-5.001 7.207-9.413 0-5.17-4.243-9.413-9.413-9.413z"/></symbol><symbol id="icon-home" viewBox="0 0 35 32"><path d="M34.256 15.629c.599-.659.541-1.669-.129-2.256L19.354.446c-.671-.586-1.746-.574-2.402.028L2.128 14.062c-.656.602-.689 1.611-.071 2.252l.372.387c.617.642 1.613.718 2.225.17l1.108-.992v14.524c0 .891.722 1.613 1.613 1.613h5.778c.89 0 1.613-.721 1.613-1.613V20.242h7.37v10.161c-.013.89.624 1.612 1.515 1.612h6.123c.89 0 1.613-.722 1.613-1.613V16.083s.306.268.684.6c.377.331 1.168.066 1.767-.594l.42-.462z"/></symbol><symbol id="icon-logo" viewBox="0 0 127 32"><path fill="#fff" style="fill:var(--color4, #fff)" d="M32.076 15.999c0 8.838-7.164 16.002-16.002 16.002S.072 24.837.072 15.999 7.236-.003 16.074-.003s16.002 7.164 16.002 16.002z"/><path d="M14.976 31.935c-.651-.044-1.567-.167-2.136-.287l-.269-.057v-2.593h7.583l-.03 2.454-.283.075c-.596.159-1.903.352-2.771.409-.987.065-1.093.065-2.094-.002zM15.457 12.025c-1.766-.216-3.27-.925-4.521-2.133l-.543-.524.531-.511c1.104-1.062 2.377-1.734 3.853-2.035 2.14-.436 4.394.069 6.142 1.376.456.341 1.213 1.057 1.213 1.148 0 .095-.944.982-1.358 1.276-.853.606-1.947 1.077-2.988 1.289-.652.133-1.74.185-2.33.113z"/><path d="M8.573 14.587c.036-1.077.122-1.704.331-2.418.128-.437.49-1.306.637-1.53l.094-.143.492.461c.532.499 1.43 1.128 2.065 1.448 3.444 1.735 7.578 1.116 10.34-1.548l.429-.414.258.524c.57 1.161.779 2.144.779 3.678v1.004H8.537zM18.724 23.94c-.317-.113-.479-.237-.651-.497l-.155-.235-.033-3.769-10.498-.03-.233-.154c-.348-.23-.551-.613-.548-1.034.003-.507.229-.882.676-1.123l.226-.122h8.825c4.854 0 8.916.019 9.028.043s.312.137.446.251c.703.602.578 1.624-.253 2.072-.22.119-.29.123-2.701.14l-2.475.017v1.684c0 1.975-.025 2.122-.418 2.485-.364.335-.792.429-1.236.27z"/><path d="M11.525 27.645c-1.067-.031-1.078-.033-1.447-.214-.685-.335-1.145-.86-1.36-1.549-.098-.315-.107-.548-.107-2.744v-2.399h7.92l.001.976c.001 1.247.06 1.661.308 2.168.943 1.927 3.61 1.916 4.57-.02l.24-.485.038-2.583h2.375l-.021 2.362c-.02 2.215-.029 2.384-.14 2.715-.336 1.003-1.132 1.649-2.18 1.77-.489.056-8.304.057-10.198.001z"/><path d="M10.789 31.091c-.062-.027-.38-.155-.707-.283-1.228-.483-2.607-1.276-3.819-2.199C5.594 28.1 4.15 26.68 3.61 26 1.501 23.348.281 20.135.135 16.85c-.096-2.161.147-3.993.782-5.898C2.83 5.216 7.744 1.11 13.815.174c.82-.126 2.73-.172 3.677-.089 2.021.179 3.785.68 5.685 1.617 4.71 2.321 7.912 6.757 8.728 12.092.152.996.134 3.599-.032 4.614-.845 5.153-3.882 9.382-8.459 11.778-.535.28-1.827.848-1.93.848-.017 0-.032-.456-.032-1.014v-1.014l.325-.038c1.439-.166 2.589-.963 3.18-2.201.344-.721.357-.845.383-3.548l.023-2.468.208-.034c.312-.051.854-.331 1.149-.593 1.117-.993 1.124-2.776.015-3.798-.283-.26-.843-.549-1.168-.603l-.212-.035-.001-.771c-.003-1.855-.289-3.193-.971-4.556-1.267-2.53-3.496-4.239-6.325-4.85-.509-.11-.76-.128-1.754-.128s-1.245.018-1.754.128c-.857.185-1.518.417-2.291.802-2.374 1.183-4.07 3.303-4.725 5.911-.199.791-.281 1.564-.281 2.635 0 .758-.011.852-.099.88-.374.121-.856.413-1.121.678-1.24 1.24-.902 3.28.674 4.069.215.108.424.196.464.196.058 0 .078.52.097 2.532.027 2.803.029 2.822.416 3.614.584 1.192 1.678 1.951 3.09 2.142l.269.036v1.071c0 1.127 0 1.126-.255 1.014zM45.24 22.426c-.184-.116-.198-.492-.198-5.259v-5.134l.298-.235c.634-.499 2.586-.835 3.361-.58.78.258.753.051.753 5.804v5.182l-.311.12c-.451.174-3.656.256-3.903.101zM54.218 22.473c-.872-.234-1.638-.684-2.21-1.295-.968-1.035-1.342-2.198-1.343-4.183-.001-1.488.128-2.136.629-3.153.866-1.758 2.856-2.839 5.232-2.841 3.186-.003 4.055.848 3.203 3.138-.315.848-.422.878-1.915.534-1.364-.314-1.749-.297-2.117.095-.423.45-.585 1.028-.585 2.082.001 1.212.147 1.781.567 2.201.411.411.68.407 2.2-.028l1.216-.348.259.243c.48.451.806 2.278.507 2.837-.178.332-.867.632-1.772.772-1.121.173-3.13.146-3.87-.053zM61.473 22.363l-.251-.176v-5.134c0-2.865.046-5.256.104-5.409.057-.151.223-.315.368-.364.44-.149 7.548-.207 7.722-.063.083.069.182.367.222.663.087.655-.102 2.255-.293 2.486-.114.138-.352.155-1.33.095-.655-.04-1.458-.103-1.785-.14l-.594-.067v1.158h3.384l.077.41c.113.604-.028 1.946-.238 2.268-.181.276-.2.279-1.674.253l-1.491-.027-.069 1.061 4.067-.153.081.538c.096.64-.021 2.112-.198 2.501l-.126.277h-3.86c-3.311 0-3.896-.025-4.112-.176z"/><path d="M54.218 22.473c-.872-.234-1.638-.684-2.21-1.295-.968-1.035-1.342-2.198-1.343-4.183-.001-1.488.128-2.136.629-3.153.866-1.759 2.86-2.842 5.232-2.84 3.207.002 4.059.836 3.203 3.136-.315.848-.422.878-1.915.534-1.432-.33-1.778-.301-2.186.185-.379.451-.515 1-.515 2.081 0 1.121.137 1.636.556 2.084.413.442.668.443 2.172.01.646-.186 1.259-.311 1.361-.279.525.166 1.004 2.352.658 3-.178.332-.867.632-1.772.772-1.121.173-3.13.146-3.87-.053z"/><path d="M54.218 22.473c-.872-.234-1.638-.684-2.21-1.295-.968-1.035-1.342-2.198-1.343-4.183-.001-1.488.128-2.136.629-3.153.456-.927 1.161-1.625 2.137-2.117 1.192-.6 2.057-.764 3.662-.692 2.266.102 2.955.515 2.926 1.755-.018.756-.42 1.895-.726 2.059-.158.085-.551.038-1.478-.176-1.432-.33-1.778-.301-2.186.185-.378.449-.515 1-.516 2.068-.001 1.072.163 1.676.575 2.117.393.42.665.419 2.154-.009.646-.186 1.259-.311 1.361-.279.525.166 1.004 2.352.658 3-.169.317-.849.624-1.703.77-1.032.177-3.195.149-3.939-.051zM74.464 22.471c-1.907-.512-3.02-1.741-3.446-3.803-.343-1.663-.166-3.4.49-4.802.895-1.913 3.004-2.958 5.722-2.836 1.523.068 2.222.239 2.662.65.291.272.336.395.336.912 0 .792-.303 1.84-.618 2.136l-.253.238-1.389-.307c-1.57-.348-1.75-.316-2.229.395-.678 1.006-.572 3.235.189 3.996.41.41.649.407 2.182-.027 1.176-.333 1.24-.34 1.449-.151.276.25.668 1.504.668 2.137 0 .537-.279.983-.774 1.238-.779.401-3.827.538-4.991.225zM81.728 22.431l-.255-.111v-5.364c0-4.154.032-5.39.141-5.48.409-.335 1.209-.416 4.158-.418 2.808-.002 3.05.014 3.818.255.943.296 1.502.773 1.878 1.599.193.424.235.738.232 1.707-.005 1.455-.264 2.229-.997 2.983l-.487.501.345.549c.687 1.094 1.434 2.68 1.434 3.044 0 .324-.055.388-.481.562-.642.262-3.51.368-3.927.145-.228-.122-.375-.456-.825-1.873-.735-2.317-.878-2.322-.878-.033v1.692l-.424.122c-.583.167-3.416.259-3.734.12zm5.244-6.353c.162-.179.225-.45.254-1.103.034-.751.007-.906-.206-1.176-.193-.245-.339-.311-.689-.311h-.444v2.829h.435c.298 0 .503-.075.65-.238zM93.153 22.363l-.251-.176v-5.233c0-4.01.033-5.278.141-5.423.244-.328 1.257-.419 4.669-.419 2.512 0 3.335.034 3.42.141.284.359.205 2.735-.102 3.105-.122.147-.338.163-1.336.102-.655-.04-1.458-.103-1.785-.14l-.594-.067v1.158h3.384l.077.41c.113.604-.028 1.946-.238 2.268-.181.276-.2.279-1.674.253l-1.491-.027-.069 1.061 4.067-.153.081.54c.094.626-.003 1.895-.185 2.416l-.125.359h-3.867c-3.317 0-3.903-.025-4.119-.176zM103.347 22.421c-.597-.118-1.168-.41-1.168-.597 0-.209.436-1.692 1.767-6.017.651-2.116 1.21-3.933 1.242-4.038.085-.285.62-.413 2.279-.544 1.448-.115 2.766-.029 2.983.195.047.048.62 1.895 1.273 4.105 1.763 5.962 1.871 6.35 1.81 6.509-.123.322-.766.449-2.246.446-2.149-.005-2.546-.2-2.546-1.248v-.389h-1.697v.484c0 .614-.233.947-.767 1.095-.489.136-2.243.136-2.93 0zm5.012-4.832c-.032-.109-.093-.771-.135-1.471-.069-1.123-.102-1.273-.282-1.273-.259 0-.3.155-.389 1.471-.04.591-.098 1.164-.129 1.273-.048.168.023.198.468.198s.516-.03.467-.198zM114.766 22.429l-.255-.109V11.705l.311-.124c.631-.252 1.471-.377 2.574-.385 1.281-.009 1.883.187 2.138.695.082.163.363 1.164.625 2.225.457 1.848.611 2.314.729 2.197.029-.029.299-1.02.6-2.201l.547-2.147.431-.24c.237-.132.721-.308 1.075-.391.88-.206 2.683-.182 3.221.043l.421.176v10.638l-.481.136c-.264.075-1.179.14-2.032.146-1.252.008-1.584-.024-1.725-.164-.152-.152-.16-.403-.062-1.98.062-.994.142-2.028.178-2.3.05-.376.031-.482-.081-.444-.093.031-.298.834-.555 2.165-.224 1.164-.47 2.178-.546 2.254-.08.08-.543.155-1.092.178-.912.038-.958.028-1.063-.226-.06-.146-.296-1.183-.523-2.303s-.434-2.058-.459-2.084c-.157-.161-.173.277-.06 1.659.07.86.127 1.879.127 2.264 0 .609-.033.717-.255.838-.317.173-3.43.254-3.79.099z"/></symbol><symbol id="icon-menu-close" viewBox="0 0 32 32"><path stroke="#fff" style="stroke:var(--color1, #fff)" stroke-width="2" d="m3.491 1.914 26.975 28.013"/><path d="m3.38 1.17 26.923 27.941-1.441 1.388L1.939 2.558z"/><path d="M30.772 3.063 2.831 29.986l-1.388-1.441L29.384 1.622z"/></symbol><symbol id="icon-menu-open" viewBox="0 0 46 32"><path d="M.161 1.289H45.72v2.093H.161zm0 13.684H45.72v2.093H.161zM.16 28.64h45.559v2.093H.16z"/></symbol><symbol id="icon-quotes" viewBox="0 0 43 32"><path style="fill:var(--color9, #e1e1e1)" d="M32.019 0c1.929 0 3.751.52 5.465 1.561s3.108 2.537 4.179 4.489c1.029 1.952 1.543 4.25 1.543 6.895s-.643 5.226-1.929 7.741c-.429.911-1.2 2.082-2.315 3.513-1.157 1.431-2.229 2.667-3.215 3.708l-4.051 4.098-2.893-4.814c2.015-1.258 3.793-2.819 5.336-4.684 1.543-1.821 2.315-3.491 2.315-5.009 0-.781-.171-1.409-.514-1.886-1.5 1.084-3.172 1.626-5.015 1.626-1.329 0-2.593-.412-3.793-1.236-1.243-.781-2.229-1.821-2.958-3.122-.772-1.258-1.157-2.559-1.157-3.903 0-1.518.45-2.971 1.35-4.358.857-1.388 1.993-2.515 3.408-3.383C29.147.412 30.561 0 32.019 0zM8.937 0c1.929 0 3.751.52 5.465 1.561s3.108 2.537 4.179 4.489c1.029 1.952 1.543 4.25 1.543 6.895 0 1.865-.236 3.534-.707 5.009-.471 1.518-1.286 3.101-2.443 4.749-1.114 1.561-2.165 2.862-3.151 3.903-.986 1.084-2.7 2.884-5.144 5.399l-2.893-4.814c2.015-1.258 3.793-2.819 5.337-4.684 1.543-1.821 2.315-3.491 2.315-5.009 0-.781-.171-1.409-.514-1.886-1.5 1.084-3.172 1.626-5.015 1.626-1.329 0-2.593-.412-3.793-1.236-1.243-.781-2.229-1.821-2.958-3.122C.386 11.622.001 10.321.001 8.977c0-1.518.429-2.971 1.286-4.358S3.28 2.104 4.695 1.236C6.067.412 7.481 0 8.939 0z"/></symbol><symbol id="icon-telegram" viewBox="0 0 32 32"><path d="M32.005 16.003c0 8.838-7.165 16.003-16.003 16.003S-.001 24.841-.001 16.003C-.001 7.165 7.164 0 16.002 0s16.003 7.165 16.003 16.003z"/><path fill="#fff" style="fill:var(--color4, #fff)" d="m12.869 18.378-.318 4.17c.454 0 .651-.182.887-.401l2.131-1.901 4.415 3.018c.81.421 1.38.199 1.599-.695l2.898-12.675.001-.001c.257-1.117-.433-1.554-1.222-1.28L6.225 14.7c-1.163.421-1.145 1.026-.198 1.3l4.355 1.264 10.116-5.908c.476-.294.909-.132.553.163l-8.183 6.858z"/></symbol><symbol id="icon-apples" viewBox="0 0 32 32"><path d="M4.51 31.826c-.53-.284-.451.058-1.968-8.531-1.077-6.1-1.465-8.145-1.644-8.664-.337-.979-.552-2.135-.568-3.056-.013-.722.002-.815.162-1.04.186-.261.518-.471.746-.471.122 0 .134-.062.109-.602-.036-.794.165-1.462.666-2.211.594-.887 1.172-1.352 1.946-1.56.407-.11.413-.227.057-1.177-.492-1.312-.639-3.083-.311-3.718.178-.345.533-.543.973-.543.316 0 .401.037.679.296l.318.296.042 1.043c.049 1.228.217 1.93.508 2.121.183.12.192.116.422-.175.376-.475.657-.706 1.141-.938.734-.351 1.335-.474 2.157-.442 1.018.04 1.519.291 2.469 1.236l.701.697.469-.148c.628-.198 1.48-.21 2.012-.03l.411.14.117-.176c.064-.097.195-.467.289-.822.232-.874.819-2.046 1.336-2.669.464-.559.633-.657 1.136-.657.263 0 .387.048.594.23.52.456.536 1.027.045 1.647-.446.565-.725 1.052-.9 1.573-.184.548-.19.627-.062.802.09.123.116.123.434.005.537-.198 1.356-.168 2.074.075 1.139.386 1.831.935 2.259 1.79.4.799.522 1.481.477 2.659-.021.545-.063 1.051-.093 1.123-.044.104-.018.132.122.132.253 0 .643.258.826.546.141.222.152.326.116 1.081-.045.932-.18 1.684-.494 2.75-.116.394-.459 1.991-.762 3.547s-.566 2.873-.584 2.925c-.021.059.037.094.156.094.105 0 .384.074.62.165l.43.165.129-.172c.071-.094.225-.466.341-.825.384-1.186.981-2.173 1.735-2.868.313-.289.374-.314.755-.314.355 0 .452.033.68.233.318.279.458.706.355 1.081-.039.141-.265.485-.503.766-.637.751-1.132 1.866-.95 2.14.061.092.148.093.6.008.694-.131 1.247-.061 2.027.258.793.323 1.315.706 1.73 1.271.465.632.644 1.246.688 2.368.043 1.08-.04 1.648-.401 2.732-.555 1.668-1.333 2.8-2.23 3.248-.74.37-1.412.482-2.613.435-3.553-.137-4.524-.252-5.23-.617-.131-.068-.247-.112-.258-.099s-.08.151-.152.306-.239.349-.371.43c-.233.144-.464.15-7.973.196-7.41.046-7.744.042-7.992-.09zm14.552-2.604c.1-.481.096-.535-.093-1.208-.294-1.049-.374-1.723-.328-2.742.068-1.474.432-2.451 1.177-3.152.232-.219.501-.448.598-.51.147-.094.207-.264.36-1.018.101-.498.175-.952.163-1.009-.014-.069-.162.011-.439.237-2.35 1.915-5.636 2.909-8.886 2.687-2.588-.177-5.29-1.228-7.092-2.758-.259-.22-.396-.297-.396-.221 0 .129 1.727 9.993 1.776 10.142.025.075 1.371.091 6.543.075l6.512-.019zm9.061.086c.276-.153.394-.295.66-.79.178-.332.431-.926.562-1.321.205-.619.239-.831.245-1.547.009-.966-.081-1.293-.443-1.611-.26-.228-.983-.54-1.252-.54-.251 0-.826.335-1.542.898-.74.582-1.015.682-1.483.542-.218-.065-.353-.174-.502-.404-.274-.423-1.025-1.149-1.312-1.268-.432-.179-1.578.169-1.831.555-.354.54-.503 1.685-.349 2.673.139.889.576 2.137.822 2.345.402.339 1.069.478 2.601.542.78.033 1.442.084 1.472.114s.496.043 1.035.027c.872-.025 1.018-.049 1.317-.215zM14.618 20.22c3.477-.708 6.291-2.998 7.441-6.054.106-.282.206-.598.221-.703s.07-.403.121-.662c.051-.259.066-.497.035-.528-.075-.075-19.424-.061-19.657.014-.165.053-.175.085-.129.429.076.575.46 1.669.85 2.425 1.433 2.775 4.299 4.718 7.653 5.187.682.095 2.79.03 3.465-.108zm-2.66-10.401c.524-.541.561-.97.194-2.243-.376-1.302-1.135-2.509-1.793-2.85-.312-.161-.906-.138-1.422.055-.383.144-.457.206-.611.516-.097.194-.267.722-.378 1.173s-.254.92-.317 1.041c-.237.459-.851.638-1.401.409-.379-.158-1.254-.226-1.626-.126-.343.092-.739.488-.978.976-.148.304-.164.767-.037 1.086l.083.208h8.05zm9.601-.113c.22-.865.169-1.946-.119-2.553-.144-.303-.554-.566-1.156-.742-.398-.116-.42-.114-.792.059-.211.098-.672.432-1.025.742-.76.669-.881.74-1.259.739-.368 0-.724-.218-.955-.584-.205-.325-.867-.864-1.266-1.031-.236-.099-.745-.072-.862.046-.016.016.037.238.116.494.35 1.124.458 2.374.261 3.018l-.052.17h7.019z"/></symbol><symbol id="icon-heart" viewBox="0 0 28 32"><path d="M12.265 31.95c-.416-.105-.697-.369-.828-.775-.053-.166-.059-1.046-.028-4.196l.039-3.986-.232-.189c-.926-.754-2.667-2.216-3.087-2.591-2.462-2.201-4.38-4.214-5.584-5.863C1.061 12.319.486 10.641.49 8.356c.002-1.065.121-1.832.432-2.79.433-1.331 1.036-2.335 2.006-3.342.961-.997 1.699-1.44 2.985-1.792C7.311.049 8.001-.025 8.955.108c1.529.212 1.869.347 2.989 1.188.869.652 1.282 1.06 1.573 1.552.31.525.593.649 1.054.463.157-.063.24-.151.376-.398.322-.585 1.052-1.262 2.204-2.041.587-.398.924-.522 1.864-.689.96-.171 1.79-.161 2.695.031 1.824.387 2.726.841 3.762 1.894 1.256 1.276 2.058 2.804 2.401 4.574.373 1.926.059 4.206-.815 5.913-1.277 2.494-4.78 6.202-9.206 9.744l-.741.593-.035 2.167c-.019 1.192-.035 2.997-.036 4.013 0 1.072-.023 1.927-.054 2.039-.082.296-.272.54-.535.688l-.238.133-1.895.009c-1.042.005-1.967-.009-2.055-.031zm2.612-2.846c.019-.36.028-1.698.019-2.975l-.016-2.321h-1.281l-.028 5.95h1.271zm1.076-8.055c3.418-2.7 6.523-5.687 8.097-7.789l.145-.194-.373-.276c-.899-.666-1.391-1.518-1.391-2.406 0-.328-.095-.47-.39-.582-.21-.08-.701-.071-.905.016-.381.161-.382.165-.415 1.654-.032 1.433-.06 1.597-.35 2.094-.19.326-.754.84-1.129 1.03-.481.243-.874.333-1.453.333-.897 0-1.608-.28-2.188-.86-.664-.665-.799-1.133-.8-2.785l-.001-1.157-.14-.11c-.329-.259-.848-.248-1.12.024-.127.127-.127.131-.127 1.386 0 1.129-.011 1.292-.11 1.584-.552 1.638-2.567 2.39-4.25 1.587-.414-.198-.972-.707-1.184-1.081-.315-.555-.34-.721-.348-2.34-.008-1.455-.01-1.48-.128-1.606-.222-.236-.797-.325-1.15-.177-.206.086-.407.322-.407.476 0 .121-.118.547-.28 1.013-.174.499-.555.988-1.073 1.377-.251.188-.457.36-.458.381s.211.321.473.667c1.569 2.075 4.415 4.826 7.797 7.536l.934.748 2.039.002zm-5.135-8.337c.341-.143.352-.189.352-1.533 0-1.061.013-1.253.107-1.557.603-1.953 3.301-2.592 4.917-1.164.302.267.575.672.742 1.1.115.295.127.424.154 1.652l.03 1.332.187.127c.159.108.237.124.519.106.277-.017.359-.046.49-.172l.158-.151.033-2.681.183-.424c.338-.784 1.113-1.415 2.037-1.66.454-.12 1.298-.12 1.752 0 1.282.34 2.193 1.375 2.193 2.493 0 .176.035.385.079.47.078.151.543.571.586.529.049-.049.291-.855.383-1.277.079-.362.098-.667.096-1.545-.003-1.002-.015-1.137-.141-1.601-.394-1.456-1.117-2.632-2.113-3.437-.485-.392-.918-.587-1.808-.813-.987-.251-1.5-.279-2.366-.129-.749.129-.827.166-1.63.765-.634.473-.856.707-1.094 1.153-.098.184-.302.446-.459.589-.42.384-1.369.75-1.944.75-.378 0-1.022-.186-1.494-.431-.475-.247-.708-.49-1.03-1.073-.207-.376-.597-.73-1.465-1.331-.507-.351-1.099-.491-2.092-.495-.581-.002-.753.02-1.337.169-.79.202-1.254.382-1.634.635-.366.243-1.163 1.082-1.478 1.555-.858 1.291-1.244 2.99-1.045 4.602.06.483.255 1.386.3 1.386.06 0 .314-.23.403-.364.052-.079.094-.23.095-.337 0-.261.326-1.158.527-1.449.413-.6 1.138-1.07 1.918-1.244.563-.125 1.399-.081 1.891.1 1.037.381 1.758 1.174 1.91 2.1.028.173.052.916.052 1.652 0 1.319.002 1.34.12 1.451.241.226.596.285.915.152z"/></symbol><symbol id="icon-milk" viewBox="0 0 21 32"><path d="M9.757 12.013c-.679-.243-1.262-.775-1.587-1.45-.168-.35-.206-.554-.244-1.304l-.044-.889-.755-.267c-.415-.147-.813-.286-.884-.308-.081-.026-.248.061-.45.233-.978.837-2.26.934-3.331.253-1.369-.871-1.59-2.947-.437-4.106l.31-.312-.118-.33C2.026 3 1.883 2.138 1.883 1.517c0-.684.138-1.018.528-1.282l.264-.178 7.698.051c8.69.058 8.069.01 8.402.646.158.301.171.4.129.977-.026.353-.118.937-.205 1.298l-.159.656.345.336c1.357 1.319 1.01 3.534-.684 4.368-.457.225-.568.248-1.185.248-.577 0-.744-.03-1.096-.197-.228-.108-.566-.332-.751-.497l-.336-.301-1.462.604-.036.875c-.043 1.06-.211 1.561-.708 2.114-.702.781-1.929 1.113-2.872.776zm1.224-2.16c.135-.099.149-.235.184-1.75l.038-1.643.586-.099c1.039-.175 2.156-.635 2.943-1.21l.359-.263.857.799c.681.635.902.799 1.075.798.12-.001.255-.026.301-.057.15-.1.27-.406.225-.572-.024-.09-.418-.5-.874-.913s-.83-.781-.83-.819c0-.037.064-.158.141-.268.209-.296.51-.917.595-1.226l.075-.271-2.991-.05c-1.645-.027-4.464-.05-6.264-.05H4.127l.047.236c.073.363.435 1.125.701 1.474l.239.313-.767.694c-.422.382-.809.767-.86.857-.176.308.086.728.454.728.181 0 .389-.153 1.066-.785l.842-.785.283.211c.797.594 2.077 1.074 3.266 1.224l.71.09v1.583c0 1.367.017 1.601.125 1.721.149.165.542.181.747.031zM3.769 31.869c-.153-.057-.45-.331-.54-.499-.04-.075-.595-3.149-1.232-6.83C1.049 19.063.79 17.702.571 17.054c-.299-.886-.5-1.978-.5-2.717 0-.569.157-.896.546-1.132.242-.148.4-.15 9.945-.15 9.318 0 9.71.005 9.962.14.435.233.567.545.545 1.293-.023.791-.188 1.704-.47 2.601-.118.375-.797 3.705-1.51 7.399-.878 4.553-1.338 6.776-1.426 6.901-.072.101-.224.254-.339.34-.206.154-.271.156-6.826.169-3.639.007-6.668-.005-6.73-.028zm12.105-2.268c.05-.168 1.555-7.927 1.555-8.019 0-.038-.28.12-.623.35-1.249.84-2.814 1.463-4.358 1.736-1.074.19-2.827.174-3.899-.036-1.701-.332-3.354-1.039-4.5-1.922-.158-.121-.303-.204-.324-.183-.033.033 1.288 7.88 1.367 8.113.025.074 1.17.094 5.387.094 5.035 0 5.358-.008 5.396-.132zm-3.35-8.162c2.209-.501 4.037-1.705 5.203-3.428.472-.698 1.062-2.168 1.062-2.647 0-.111-.724-.121-8.232-.121H2.325l.049.245c.177.884.714 2.076 1.268 2.811 1.291 1.714 3.27 2.875 5.535 3.245.874.143 2.474.092 3.349-.106z"/></symbol><symbol id="icon-modal-close" viewBox="0 0 32 32"><path d="M4.688 27.313c-3.014-2.914-4.885-6.992-4.885-11.51 0-8.837 7.163-16.001 16.001-16.001 4.517 0 8.595 1.87 11.505 4.88l.005.005c2.779 2.874 4.491 6.795 4.491 11.116 0 8.837-7.163 16.001-16.001 16.001-4.32 0-8.242-1.712-11.121-4.496l.005.005zm2.256-2.256c2.318 2.318 5.52 3.75 9.056 3.75 7.074 0 12.807-5.734 12.807-12.807 0-3.536-1.434-6.738-3.75-9.056-2.318-2.318-5.52-3.75-9.056-3.75-7.074 0-12.807 5.734-12.807 12.807 0 3.536 1.434 6.738 3.75 9.056zm15.841-13.584-4.528 4.528 4.528 4.528-2.256 2.256-4.528-4.528-4.528 4.528-2.256-2.256 4.528-4.528-4.528-4.528 2.256-2.256 4.528 4.528 4.528-4.528 2.256 2.256z"/></symbol><symbol id="icon-name" viewBox="0 0 32 32"><path d="M16.001 16.001c2.947 0 5.333-2.387 5.333-5.333s-2.387-5.333-5.333-5.333-5.333 2.387-5.333 5.333 2.387 5.333 5.333 5.333zm0 2.667c-3.56 0-10.668 1.787-10.668 5.333v1.333c0 .733.6 1.333 1.333 1.333h18.668c.733 0 1.333-.6 1.333-1.333v-1.333c0-3.547-7.107-5.333-10.668-5.333z"/></symbol><symbol id="icon-phone" viewBox="0 0 32 32"><path d="m24.883 19.774-3.268-.373c-.785-.09-1.557.18-2.11.733l-2.367 2.367c-3.641-1.853-6.626-4.825-8.478-8.478l2.38-2.38c.553-.553.823-1.325.733-2.11L11.4 6.291c-.154-1.299-1.248-2.277-2.56-2.277H6.614c-1.454 0-2.663 1.209-2.573 2.663.682 10.988 9.469 19.762 20.444 20.444 1.454.09 2.663-1.119 2.663-2.573v-2.226c.013-1.3-.965-2.393-2.264-2.547z"/></symbol><symbol id="icon-envelope" viewBox="0 0 32 32"><path d="M26.668 5.333H5.334c-1.467 0-2.653 1.2-2.653 2.667l-.013 16.001c0 1.467 1.2 2.667 2.667 2.667h21.334c1.467 0 2.667-1.2 2.667-2.667V8c0-1.467-1.2-2.667-2.667-2.667zm-.534 5.668-9.427 5.893c-.427.267-.987.267-1.413 0l-9.427-5.893c-.333-.213-.533-.573-.533-.96 0-.893.973-1.427 1.733-.96L16 14.668l8.933-5.587c.76-.467 1.733.067 1.733.96 0 .387-.2.747-.533.96z"/></symbol><symbol id="icon-modal-ice-cream" viewBox="0 0 16 32"><path d="M3.204 3.612c-.051-.134.073-.403.445-.962C5.046.551 7.31-.272 9.653.468c.849.268 1.696.859 2.359 1.645.565.67 1.011 1.44.898 1.553-.018.018-.197-.01-.398-.061-1.093-.277-2.473-.319-3.523-.109-.797.16-1.113.164-1.668.025-.333-.084-.704-.107-1.707-.107-1.234 0-1.57.037-2.266.252-.062.019-.124-.004-.143-.053zm7.037-1.328c.375-.194.47-.736.164-.934-.676-.437-1.477.299-.898.826.244.222.454.253.733.108zM11.426 14.038c0-.05.128-.423.285-.828.459-1.186.526-1.555.526-2.894 0-.929-.024-1.256-.121-1.662-.257-1.072-.685-1.923-1.472-2.931-.577-.738-.684-.9-.63-.954.091-.091.848-.086 1.4.009 1.979.342 3.441 1.617 4.114 3.59.276.809.359 1.393.317 2.229-.071 1.404-.796 3.083-1.484 3.439-.262.135-2.934.136-2.934.001zm2.063-5.182c0-.337-.807-1.254-1.07-1.217-.352.05-.132.596.47 1.165.3.284.366.321.475.263.07-.037.126-.131.126-.211zm.813-.822c.373-.193.434-.666.119-.931-.222-.187-.308-.197-.559-.067-.364.188-.425.614-.129.91.207.207.309.223.569.088z"/><path d="M2.54 14.104c-.575-.016-.685-.03-.847-.112-.258-.13-.411-.312-.695-.828-.356-.646-.595-1.298-.683-1.865-.056-.361-.057-1.675-.001-1.991.132-.744.506-1.63.964-2.285.883-1.262 2.273-2.098 3.803-2.286.242-.03.761-.03 1.035.001 1.423.157 2.8.955 3.692 2.14.63.837 1.002 1.768 1.107 2.768.031.297.032 1.069.001 1.345-.087.782-.286 1.424-.649 2.084-.158.288-.406.677-.486.762-.162.171-.394.233-1.009.268-.453.026-5.299.025-6.232-.001zm5.957-4.905c.095-.059.174-.218.156-.315-.043-.231-.258-.525-.678-.934-.293-.284-.384-.342-.473-.302-.108.049-.178.233-.141.368.049.177.711 1.002.934 1.164.103.075.109.075.202.018zm.909-.953c.248-.063.424-.42.373-.759-.03-.203-.307-.414-.54-.412-.288.002-.568.3-.564.6.003.211.155.434.368.54.125.062.21.069.363.031zm-4.965-.14c.207-.107.173-.317-.112-.696-.171-.226-.525-.6-.652-.687-.138-.095-.265-.123-.366-.08-.105.044-.163.148-.132.237.036.103.274.439.465.656.266.303.619.6.716.603.01 0 .046-.014.082-.033zm.883-1.007c.508-.271.45-1.009-.09-1.124-.189-.04-.367.018-.509.168-.284.298-.253.765.063.95.223.131.3.132.536.006zM7.131 31.867c-.055-.089-2.693-7.479-5.097-14.279l-.442-1.25v-.281c0-.232.013-.305.071-.415.109-.206.275-.371.47-.466l.177-.087 1.844-.025c2.217-.03 10.707.001 10.746.039.045.045-.182.692-1.198 3.424-1.265 3.4-4.431 11.831-4.853 12.922l-.139.359-.122.021c-.21.036-1.439.068-1.458.038zm.559-3.95c.732-.15 1.606-.402 1.762-.507.128-.086.301-.485.597-1.373.234-.701.234-.701-.111-.669-.296.028-1.05.192-2.249.492-1.115.278-1.257.327-1.286.444-.04.16.34 1.422.477 1.585.071.085.093.092.29.092.117 0 .351-.028.521-.063zm-.958-3.581c1.255-.29 3.252-.773 3.745-.907.397-.108.422-.119.554-.258.095-.1.168-.221.232-.387.121-.314.435-1.318.46-1.469.017-.104.012-.117-.045-.117-.171 0-1.681.308-3.162.645-1.972.448-3.207.776-3.324.881-.082.074-.056.244.122.788.247.755.374 1.03.475 1.03.029 0 .454-.093.945-.206zm-1.663-3.421c1.797-.399 7.192-1.698 7.313-1.76.176-.091.275-.25.475-.758.267-.681.479-1.319.456-1.378-.039-.103-.135-.082-4.408.928-3.727.881-4.968 1.203-5.005 1.299-.024.062.036.299.201.796.205.62.388.969.506.969.018 0 .226-.043.462-.095z"/></symbol></defs></svg>